<?xml version="1.0" standalone="no"?><!DOCTYPE svg PUBLIC "-//W3C//DTD SVG 1.1//EN" "http://www.w3.org/Graphics/SVG/1.1/DTD/svg11.dtd"><svg t="1764831519684" class="icon" viewBox="0 0 1024 1024" version="1.1" xmlns="http://www.w3.org/2000/svg" p-id="2537" width="32" height="32" xmlns:xlink="http://www.w3.org/1999/xlink"><path d="M64 896h896v64H64zM64 224v-64h96V64h192v96h320V64h192v96h96v64H64zM960 272v576H64V272h896z m-576 112l-144 208 79.984-0.016L320 736l144-208-80-0.016V384z m400 272h-128v32h128v-32z m-48-256h-32v48h-48v32h48v48h32v-48h48v-32h-48v-48z" fill="#9b5de5" p-id="2538"></path></svg>