<?xml version="1.0" standalone="no"?><!DOCTYPE svg PUBLIC "-//W3C//DTD SVG 1.1//EN" "http://www.w3.org/Graphics/SVG/1.1/DTD/svg11.dtd"><svg t="1764902267072" class="icon" viewBox="0 0 1024 1024" version="1.1" xmlns="http://www.w3.org/2000/svg" p-id="5629" xmlns:xlink="http://www.w3.org/1999/xlink" width="32" height="32"><path d="M757.76 0a163.84 163.84 0 0 1 163.84 163.84v355.249231a284.711385 284.711385 0 0 0-81.880615-24.654769L839.68 163.84a81.92 81.92 0 0 0-81.92-81.92H266.24a81.92 81.92 0 0 0-81.683692 75.815385l-0.236308 6.104615v696.32a81.92 81.92 0 0 0 75.815385 81.683692l6.104615 0.236308h297.156923a288.216615 288.216615 0 0 0 87.630769 81.959385L266.24 1024a163.84 163.84 0 0 1-163.84-163.84V163.84A163.84 163.84 0 0 1 266.24 0h491.52z m40.96 573.44a204.8 204.8 0 1 1 0 409.6 204.8 204.8 0 0 1 0-409.6z m40.96 81.92h-54.626462v109.213538H675.84V819.2h163.84v-54.626462h-0.039385l0.039385-109.213538z m-315.825231 40.96A286.759385 286.759385 0 0 0 512 778.24H307.2v-81.92h216.654769z m192.945231-245.76v52.814769a285.144615 285.144615 0 0 0-65.851077 29.144616L307.2 532.48v-81.92h409.6z m0-245.76v81.92H307.2V204.8h409.6z" fill="#9b5de5" p-id="5630"></path></svg>