<?xml version="1.0" standalone="no"?><!DOCTYPE svg PUBLIC "-//W3C//DTD SVG 1.1//EN" "http://www.w3.org/Graphics/SVG/1.1/DTD/svg11.dtd"><svg t="1764902184020" class="icon" viewBox="0 0 1024 1024" version="1.1" xmlns="http://www.w3.org/2000/svg" p-id="4537" xmlns:xlink="http://www.w3.org/1999/xlink" width="32" height="32"><path d="M170.24 782.976h680.832a102.144 102.144 0 0 1 0 204.288H170.24a102.144 102.144 0 0 1 0-204.288z m0 68.096a34.048 34.048 0 1 0 0 68.096h680.832a34.048 34.048 0 1 0 0-68.096H170.24zM782.976 187.264a51.072 51.072 0 1 0 102.144 0 51.072 51.072 0 0 0-102.144 0M136.192 187.264a51.072 51.072 0 1 0 102.08 0 51.072 51.072 0 0 0-102.08 0" fill="#9b5de5" p-id="4538"></path><path d="M476.608 612.736a34.048 34.048 0 1 1 68.096 0v170.24a34.048 34.048 0 1 1-68.096 0v-170.24z" fill="#9b5de5" p-id="4539"></path><path d="M476.608 34.048a34.048 34.048 0 1 1 68.096 0v102.144a34.048 34.048 0 1 1-68.096 0V34.048zM34.048 476.608a34.048 34.048 0 1 1 0-68.096h102.144a34.048 34.048 0 1 1 0 68.096H34.048z m851.072 0a34.048 34.048 0 1 1 0-68.096h102.144a34.048 34.048 0 1 1 0 68.096H885.12zM510.656 578.752a51.072 51.072 0 1 0 0-102.144 51.072 51.072 0 0 0 0 102.144z m0 68.032a119.168 119.168 0 1 1 0-238.272 119.168 119.168 0 0 1 0 238.272z" fill="#9b5de5" p-id="4540"></path><path d="M281.088 817.024h-61.376v-275.2a290.944 290.944 0 0 1 291.392-290.56 290.944 290.944 0 0 1 291.392 290.56v275.2h-61.312v-275.2A229.76 229.76 0 0 0 511.104 312.32a229.76 229.76 0 0 0-230.016 229.376v275.264z" fill="#9b5de5" p-id="4541"></path></svg>